PathFileType	4	(X/Y/Z)	./resultDataOpenSim/trcMotMarkerGrf/sub10/qtm-13-06.trc
DataRate	CameraRate	NumFrames	NumMarkers	Units	OrigDataRate	OrigDataStartFrame	OrigNumFrames
250.000000	250.000000	9	24	m	250.000000	193	513
Frame#	Time	L.Toe.Tip			R.Toe.Tip			L.Ankle.Lat			R.Ankle.Lat			L.Ankle.Med			R.Ankle.Med			L.Heel			R.Heel			L.Knee.Lat			R.Knee.Lat			L.Knee.Med			R.Knee.Med			L.Thigh.Upper			R.Thigh.Upper			L.ASIS			R.ASIS			V.Sacral			L.Acromium			R.Acromium			C7			L.Elbow			R.Elbow			L.Wrist.Lat			R.Wrist.Lat
		X1	Y1	Z1	X2	Y2	Z2	X3	Y3	Z3	X4	Y4	Z4	X5	Y5	Z5	X6	Y6	Z6	X7	Y7	Z7	X8	Y8	Z8	X9	Y9	Z9	X10	Y10	Z10	X11	Y11	Z11	X12	Y12	Z12	X13	Y13	Z13	X14	Y14	Z14	X15	Y15	Z15	X16	Y16	Z16	X17	Y17	Z17	X18	Y18	Z18	X19	Y19	Z19	X20	Y20	Z20	X21	Y21	Z21	X22	Y22	Z22	X23	Y23	Z23	X24	Y24	Z24

193	0.768	0.058901959	-0.0081210917	-0.12808327	-0.65167885	0.057008532	0.0064519555	-0.076066221	0.020977352	-0.14816249	-0.67079691	0.19938947	0.045444287	-0.061347794	0.044518256	-0.063965613	-0.62740954	0.18049873	-0.028397964	-0.14057802	-0.0081232624	-0.10024717	-0.70254493	0.23259622	-0.010087898	-0.009719556	0.40711396	-0.18458343	-0.33075709	0.37575723	0.096335403	-0.0024376281	0.3900041	-0.063773231	-0.274654	0.33981732	-0.019268594	-0.14244267	0.76451441	-0.24433587	-0.26796295	0.76474638	0.12644257	-0.12707544	0.86471971	-0.15863976	-0.17388015	0.85719176	0.069231058	-0.34321977	0.87611441	-0.097186993	-0.24645354	1.3274797	-0.23233538	-0.28014175	1.3271763	0.092796939	-0.34395303	1.3478923	-0.084919168	-0.37222386	1.018472	-0.28663041	-0.2923948	0.96845241	0.14639693	-0.32833499	0.79188617	-0.3558546	-0.063621371	0.86937722	0.16024945
194	0.772	0.05924091	-0.0082157668	-0.12820061	-0.64314129	0.061475397	0.0084574866	-0.075327445	0.02102681	-0.14791207	-0.65888175	0.20451362	0.04664492	-0.060467337	0.044513107	-0.063777312	-0.61618824	0.18444732	-0.026987384	-0.14047879	-0.0076460934	-0.10045489	-0.68960701	0.23844062	-0.0094241806	-0.0040690976	0.40617172	-0.18516427	-0.31703027	0.37341087	0.098214833	0.004687571	0.3892552	-0.064692303	-0.25939812	0.3365405	-0.017535935	-0.13757239	0.76388754	-0.24495409	-0.26026574	0.76293676	0.12585243	-0.1219067	0.86408254	-0.15943854	-0.16767751	0.85616707	0.067536804	-0.33794821	0.87547804	-0.096367452	-0.23916945	1.3264471	-0.23286492	-0.27329192	1.3264651	0.091809138	-0.33662462	1.3469478	-0.085609337	-0.3642785	1.0172666	-0.28815306	-0.28779866	0.96826018	0.14612287	-0.31918938	0.79133567	-0.35913681	-0.060170935	0.86751711	0.16435313
195	0.776	0.05951579	-0.0083035576	-0.12827902	-0.63365804	0.066326508	0.010840959	-0.074717961	0.02100729	-0.14757841	-0.64674505	0.20989742	0.047708088	-0.059671287	0.044420829	-0.063507454	-0.60472865	0.18874221	-0.025677314	-0.14052733	-0.0072670571	-0.10069565	-0.6767685	0.2441221	-0.0087544301	0.0012591667	0.40513952	-0.18574247	-0.30307291	0.37104005	0.099872337	0.011679174	0.38828312	-0.065443162	-0.24425377	0.3336281	-0.016026707	-0.1329677	0.76310289	-0.24557859	-0.25304225	0.76119065	0.12535531	-0.11680407	0.86340992	-0.16028696	-0.16165488	0.85510157	0.065968178	-0.3327195	0.87474469	-0.095452763	-0.23183441	1.3253612	-0.23337953	-0.26647292	1.3256626	0.090824621	-0.32937315	1.3459138	-0.086296094	-0.35634459	1.0160173	-0.28962904	-0.28317669	0.96789574	0.14562186	-0.31003539	0.79073965	-0.36244377	-0.056787328	0.86562057	0.16871193
196	0.78	0.059707705	-0.0083867385	-0.12834981	-0.62327463	0.071419412	0.013604957	-0.074283061	0.020936245	-0.14723381	-0.63423384	0.21558961	0.048713047	-0.058992768	0.044231833	-0.063169997	-0.59290405	0.19335447	-0.02456716	-0.14057661	-0.0069647925	-0.1007252	-0.66391174	0.24967439	-0.0080486681	0.0062727538	0.40398282	-0.18629184	-0.28893459	0.36872368	0.10137514	0.018514655	0.38714478	-0.065985068	-0.22925315	0.33114325	-0.014741533	-0.12855721	0.76216145	-0.24623209	-0.24632279	0.75947694	0.12499788	-0.11176235	0.86269828	-0.16118283	-0.15580671	0.85400014	0.064557293	-0.3274408	0.87384646	-0.094444815	-0.22445142	1.3242206	-0.23388164	-0.25967359	1.3247858	0.089847384	-0.32218155	1.3448031	-0.086981488	-0.34837592	1.0147161	-0.291163	-0.27857526	0.96730136	0.14492208	-0.30083024	0.79010544	-0.36580995	-0.053505571	0.86367829	0.1733274
197	0.784	0.059817954	-0.0084797744	-0.12843806	-0.61203319	0.076644684	0.016763189	-0.073986599	0.020829596	-0.14692684	-0.62118908	0.22155808	0.049741603	-0.058443346	0.043954834	-0.062802115	-0.58057641	0.19814794	-0.02363433	-0.14052399	-0.006725817	-0.10043412	-0.65086069	0.25511828	-0.0073193842	0.011024662	0.40264101	-0.18677743	-0.27466068	0.36654239	0.10279368	0.025031266	0.38584313	-0.066368597	-0.21442633	0.32911003	-0.013682136	-0.12427436	0.76106909	-0.24692191	-0.23993874	0.75772152	0.12471209	-0.10679096	0.86194792	-0.16212533	-0.15012766	0.85287301	0.063333369	-0.32204647	0.87269665	-0.09343888	-0.21702404	1.323019	-0.23437452	-0.25287858	1.3238448	0.088880196	-0.31502529	1.3436308	-0.087642051	-0.34034031	1.013346	-0.29290692	-0.27404511	0.96653933	0.14426349	-0.29147214	0.78946306	-0.36930343	-0.05032214	0.86169606	0.17818962
198	0.788	0.059867909	-0.0085952978	-0.12853356	-0.6000067	0.081915593	0.020320144	-0.073745844	0.020706141	-0.14668788	-0.60760072	0.22764179	0.05080568	-0.058020578	0.04362364	-0.062454941	-0.56771559	0.20292094	-0.022777356	-0.14034009	-0.0065433263	-0.099854194	-0.63749396	0.26044912	-0.0066102834	0.015605978	0.40108733	-0.18715574	-0.26027396	0.36453022	0.10416467	0.030962003	0.38433533	-0.066705765	-0.19978876	0.32750881	-0.012834424	-0.1200774	0.7598295	-0.24764026	-0.23349039	0.75584061	0.12429391	-0.10189914	0.86116347	-0.16312092	-0.14461487	0.85173258	0.062304368	-0.31653112	0.87121792	-0.092603831	-0.20955615	1.3217521	-0.23486663	-0.24608239	1.3228414	0.087930024	-0.30788233	1.3424153	-0.088220845	-0.33228087	1.0118951	-0.29486505	-0.2696133	0.96575202	0.14394952	-0.28190099	0.7888441	-0.37295448	-0.047192089	0.85969509	0.18324744
199	0.792	0.059886014	-0.0087191287	-0.12860287	-0.58729929	0.087144388	0.024226755	-0.073497985	0.020582476	-0.14653824	-0.59371582	0.23354696	0.051812053	-0.057700322	0.043277607	-0.062161907	-0.55441487	0.20748781	-0.021917587	-0.14005905	-0.0064010004	-0.099103239	-0.62376809	0.26564281	-0.00596444	0.020048627	0.3993731	-0.18738434	-0.2457661	0.36268809	0.10548975	0.036154575	0.38260424	-0.06705235	-0.18533516	0.32628612	-0.012165642	-0.11594381	0.75844155	-0.2483758	-0.22658587	0.75383651	0.12348278	-0.097085635	0.86035042	-0.1641753	-0.13926336	0.85058793	0.061456106	-0.31096149	0.86939631	-0.092034644	-0.20205035	1.320428	-0.23536967	-0.23929693	1.3217822	0.087008123	-0.30074936	1.3411776	-0.088685106	-0.32427155	1.0103728	-0.2968875	-0.26525558	0.965024	0.14407178	-0.27212678	0.78826568	-0.37674314	-0.044076123	0.85769971	0.18842074
200	0.796	0.059893045	-0.0088231867	-0.12862093	-0.57398932	0.092249578	0.028370003	-0.073232795	0.020452096	-0.14646402	-0.57992731	0.23897039	0.052609839	-0.057433886	0.042937217	-0.061920586	-0.54077107	0.21175671	-0.021037491	-0.13978552	-0.0062767448	-0.098392803	-0.60970522	0.27065599	-0.0053939024	0.024268687	0.39761673	-0.18744167	-0.23110774	0.36101564	0.10675385	0.040709594	0.38070581	-0.067332727	-0.17102566	0.3253758	-0.011628525	-0.11186726	0.75690455	-0.24911694	-0.21933326	0.75188233	0.12221713	-0.092339656	0.85950998	-0.16528295	-0.13406053	0.8494395	0.060764672	-0.3054426	0.86730807	-0.091636252	-0.1945078	1.3190634	-0.23589186	-0.23253913	1.3206834	0.086122742	-0.29365897	1.33994	-0.089106636	-0.31631211	1.008805	-0.29888752	-0.2608758	0.96434207	0.14448004	-0.26218919	0.78773108	-0.38063521	-0.041001227	0.85572641	0.19365979
201	0.8	0.059896241	-0.0088991608	-0.12859018	-0.56013501	0.097165535	0.03261292	-0.072976268	0.02029566	-0.14641904	-0.5664292	0.24380347	0.053129501	-0.05717263	0.042603069	-0.061711107	-0.52683403	0.21573439	-0.020151509	-0.13963841	-0.0061537509	-0.097938578	-0.59538242	0.27542412	-0.0048961874	0.028168757	0.39592267	-0.18733505	-0.21628686	0.3595164	0.10795256	0.044835741	0.37873404	-0.067415735	-0.15679263	0.32472283	-0.011174159	-0.1078508	0.75522466	-0.24985486	-0.21232797	0.75015735	0.12077289	-0.087654963	0.85863939	-0.16643784	-0.12898701	0.84827904	0.060207706	-0.30005453	0.86509201	-0.091236641	-0.18692852	1.3176725	-0.23643336	-0.22581242	1.3195627	0.085278381	-0.2866699	1.3387277	-0.089609744	-0.30834162	1.0072135	-0.30091105	-0.25633211	0.96367554	0.14497479	-0.25211807	0.78723758	-0.38460356	-0.038068445	0.85377938	0.19897066
